<?xml version="1.0" encoding="utf-8"?>
<!-- Generator: Adobe Illustrator 16.0.0, SVG Export Plug-In . SVG Version: 6.00 Build 0)  -->
<!DOCTYPE svg PUBLIC "-//W3C//DTD SVG 1.1//EN" "http://www.w3.org/Graphics/SVG/1.1/DTD/svg11.dtd">
<svg version="1.1" xmlns="http://www.w3.org/2000/svg" xmlns:xlink="http://www.w3.org/1999/xlink" x="0px" y="0px"
	 width="226.132px" height="381.625px" viewBox="2.132 101.557 226.132 381.625"
	 enable-background="new 2.132 101.557 226.132 381.625" xml:space="preserve">
<g id="Warstwa_1" display="none">
	<g id="Warstwa_1_2_" display="inline">
		<g id="Warstwa_1_1_" display="none">
			
				<image display="inline" overflow="visible" enable-background="new    " width="823" height="1062" xlink:href="F7AAD8C5.jpg"  transform="matrix(0.4017 0 0 0.4017 -55.74 63.176)">
			</image>
		</g>
		<g id="Warstwa_2">
			<path fill="#FF0000" stroke="#FF0000" stroke-width="6" stroke-miterlimit="10" d="M116.374,85.823
				c-9.13-3.333-37.536,11.333-43.536,30.667c-6,19.335-1.333,45.333,18.667,70.667c-62,10-68,48-66.667,100s35.333,50,35.333,50
				S68.218,442.49,70.528,452.49c2.312,10,20.051,21.334,45.848,15.334c0.464-47.334,0-138.667,0-138.667"/>
			<path fill="#FF0000" stroke="#FF0000" stroke-width="6" stroke-miterlimit="10" d="M114.889,85.823
				c9.13-3.333,37.536,11.333,43.536,30.667c6,19.335,1.333,45.333-18.667,70.667c62,10,68,48,66.667,100s-35.333,50-35.333,50
				s-8.047,105.333-10.357,115.333c-2.259,9.78-19.274,20.836-44.154,15.705c-0.561-0.115-1.123-0.239-1.69-0.371
				c-0.464-47.334,0-138.667,0-138.667"/>
		</g>
	</g>
	<g id="Warstwa_4" display="inline">
		<path fill="#FF0000" stroke="#FF0000" stroke-width="6" stroke-miterlimit="10" d="M71.632,115.49c0,0,3.254-9.252,7.949-22.34
			c10.7-29.833,28.881-79.599,33.052-85.16c6-8,45,87,49,107.5c2.923,14.98-46.482,8.067-73.302,3.259
			C78.448,116.976,71.632,115.49,71.632,115.49z"/>
		<path fill="#FF0000" stroke="#FF0000" stroke-width="6" stroke-miterlimit="10" d="M114.683,121.656
			c13.449,4-42.761-1.801-42.761-1.801l-3.79-1.532l-2-2.333"/>
		<path fill="#FF0000" stroke="#FF0000" stroke-width="6" stroke-miterlimit="10" d="M156.256,113.951c0,0-3.254-9.253-7.948-22.341
			c-10.7-29.833-28.882-79.599-33.052-85.159c-6-8-45,87-49,107.5c-2.923,14.979,46.482,8.066,73.302,3.258
			C149.441,115.438,156.256,113.951,156.256,113.951z"/>
	</g>
	<g id="Warstwa_3" display="inline">
	</g>
</g>
<g id="Warstwa_2_1_" display="none">
	
		<image display="inline" overflow="visible" width="450" height="432" xlink:href="F35430F7.jpg"  transform="matrix(1.3019 0 0 1.3019 -192.5344 -116.5667)">
	</image>
</g>
<g id="Warstwa_8">
	<polyline fill="#1A5284" points="54.763,396.98 53.301,417.673 71.849,428.272 80.807,427.642 88.882,422.721 89.765,420.071 
		89.26,399.63 72.606,390.42 54.763,386.003 	"/>
	<path fill="#1A5284" d="M162.315,397.105l1.868,20.441c0,0-4.139,12.998-4.643,13.376c-0.505,0.379-7.066,2.271-10.095,1.513
		c-3.028-0.757-7.948-2.018-10.977-3.027c-3.028-1.011-9.085-2.777-10.347-3.219c-1.262-0.44-2.523,0.41-3.028-1.15
		c-0.505-1.563-1.766-4.211-1.766-4.211l2.089-2.59l-0.45-20.375l15.899-7.569"/>
	<path fill="#1A5284" d="M70.116,415.932l-4.45,12.34c0,0-7.443-0.102-9.21-1.362c-1.767-1.261-4.311-4.809-4.311-4.809
		s-0.642-6.771-0.816-7.036c-0.173-0.269,6.766-4.308,6.766-4.308"/>
	<path fill="#0E446B" d="M54.644,398.669v2.915c0,0,33.884,11.013,34.802,5.553c0.918-5.457-3.056-10.095-3.056-10.095L68.41,386.76
		"/>
	<path fill="#0E446B" d="M162,396.978l0.619,3.466c0,0-31.156,10.79-37.433,7.385c0.097-6.813,0.35-10.028,0.35-10.028"/>
	<path fill="#0E446B" d="M164.183,415.684l-0.275-1.146c0,0-0.952,0.045-1.288,0.526c-0.335,0.479-0.051,0.715-0.619,1.519
		c-0.567,0.805-0.615,0.663-1.467,1.798c-0.852,1.136-1.515,2.365-1.845,2.698c-0.331,0.331-1.467,1.134-2.035,1.513
		s-1.467,0.711-2.649,0.898c-1.183,0.189-2.414,0.379-3.502,0.379s-2.791,0-3.879,0s-2.319,0.333-4.448,0
		c-2.129-0.331-3.502-0.662-5.205-0.851c-1.703-0.189-4.495-0.283-5.44-0.947c-0.946-0.661-2.745-1.656-3.266-2.034
		c-0.52-0.379-1.04-0.852-1.229-1.183c-0.189-0.33-0.284-0.567-0.663-0.853c-0.378-0.283-0.91-0.235-1.185-0.331
		c-0.273-0.096-0.33-0.661-0.802,0.568c-0.474,1.229-0.995,1.845-0.806,3.549c0.189,1.702,0.048,2.177,2.744,3.691
		c2.698,1.513,3.266,2.684,8.092,3.352c4.826,0.67,2.98-0.135,10.931,0.859c7.948,0.992,10.211,0.944,11.539,0.568
		c1.33-0.379,2.134-1.277,4.311-2.84c2.177-1.561,3.928-3.404,4.4-4.896c0.474-1.491,0.616-3.054,0.616-3.431
		c0-0.379-0.521-1.231-0.521-1.231"/>
	<path fill="#0E446B" d="M53.65,412.74c0,0,0.508,1.209,0.994,2.028c0.487,0.822,0.676,0.819,1.496,2.083
		c0.82,1.263,1.198,2.17,2.649,2.663c1.451,0.491,0.441,0.364,4.038,0.807c3.596,0.441,4.164,0.568,6.75,0.758
		c2.586,0.189,4.921,0.379,6.813,0.379c1.893,0,1.577,0.124,3.975-0.379c2.398-0.506,2.223-0.57,3.825-1.012
		c1.602-0.44,2.547-0.817,3.43-1.45c0.884-0.63,1.664-1.064,1.735-1.512s0-1.831,0-1.831l-0.284-0.568c0,0,1.578,0.568,2.02,1.515
		c0.441,0.947,0.757,1.577,0.757,2.272c0,0.692,2.522-0.695-1.01,2.332c-3.532,3.029-4.52,3.314-5.762,4.213
		c-1.241,0.897-3.134,1.846-4.269,2.16c-1.136,0.316-6.372,0.692-11.419,0c-5.047-0.693-2.838,0.567-6.309-1.01
		c-3.47-1.579-2.966-1.071-5.174-2.207s-3.153-1.517-4.604-2.399c-1.451-0.882-1.489-1.007-1.975-1.419
		c-0.486-0.409-0.801-1.04-0.707-1.48c0.095-0.443,0.705-2.061,0.707-2.841c0.003-0.777,1.425-1.852,1.425-1.852l0.69-0.926"/>
</g>
<g id="Warstwa_7">
	<path fill="#D8A956" d="M53.364,412.279c0,0,0.284,9.462,9.842,9.841c9.558,0.379,16.938,0.283,20.914-0.661
		c3.975-0.947,4.637-0.854,5.015-3.029c0.379-2.177,0.663-4.26,0.663-4.26s6.813,2.366,6.056,6.814
		c-0.757,4.448-4.637,6.246-7.002,7.95c-2.366,1.701-9.369,3.69-11.545,5.014c-2.177,1.325-6.151,4.638-11.261,4.165
		c-5.11-0.474-5.489,0.945-8.706-1.61c-3.217-2.555-4.069-3.123-5.11-5.014c-1.041-1.894-2.082-2.555-2.934-3.598
		c-0.852-1.04-3.88-2.555-4.447-4.542c-0.568-1.986-1.136-3.405,0.946-6.057c2.082-2.648,4.258-4.635,4.826-5.014
		C51.187,411.9,52.796,411.71,53.364,412.279z"/>
	<path fill="#D8A956" d="M45.131,468.961c-1.041,0-7.098-2.838-10.314-4.541c-3.218-1.704-3.88-3.502-4.542-4.26
		c-0.598-0.682-5.811-7.134-8.01-15.331c-0.24-0.895-0.444-1.811-0.602-2.742c-1.608-9.463-4.448-5.206-5.772-3.406
		c-1.325,1.798-3.501,8.422-3.596,12.681c-0.095,4.26-0.663,7.663,6.813,18.074c7.476,10.409,26.497,6.244,28.011,6.434
		s10.882-0.662,15.141-3.217c4.258-2.555,10.22-2.083,12.208-1.987c1.987,0.094,9.842-4.069,10.409-6.245
		c0.568-2.177,2.744-37.38,2.744-37.38l-37.001-0.852v18.926c0,0-12.964,1.515-14.762,7.382c-1.798,5.867-6.813,1.325-6.813,1.325"
		/>
	<path fill="#D8A956" d="M21.982,443.687c0,0,4.601,7.673,8.386,9.094c3.785,1.419,4.258-1.891,8.517-1.419
		c4.258,0.473,10.977,4.068,11.64,5.677c0.662,1.607,2.555,4.354,2.176,5.678c-0.378,1.325,0.284,3.786-1.135,4.542
		c-1.419,0.757-1.419,3.122-4.826,3.218c-3.407,0.094-7.003,1.704-12.018,0c-5.016-1.703-9.18-1.986-10.883-3.88
		c-1.703-1.894-2.082-3.974-3.312-6.718s-1.23-5.963-1.704-7.193c-0.473-1.229-1.419-5.771-1.419-6.245c0-0.473,0-3.123,0-3.123"/>
	<path fill="#D8A956" d="M163.539,415.439c0,0-0.299,9.933-10.329,10.33c-10.029,0.396-17.777,0.298-21.949-0.697
		c-4.171-0.992-4.866-0.893-5.264-3.177s-0.695-4.469-0.695-4.469s-7.15,2.484-6.356,7.15c0.795,4.669,4.866,6.557,7.351,8.344
		c2.481,1.787,9.831,3.871,12.116,5.264c2.284,1.39,6.455,4.866,11.818,4.369s5.76,0.992,9.138-1.689
		c3.376-2.68,4.271-3.277,5.363-5.264c1.092-1.985,2.184-2.68,3.078-3.772c0.894-1.095,4.072-2.684,4.668-4.769
		s1.191-3.574-0.994-6.356c-2.185-2.781-4.468-4.866-5.063-5.264C165.823,415.043,164.135,414.844,163.539,415.439z"/>
	<path fill="#D8A956" d="M172.179,474.929c1.093,0,7.45-2.979,10.826-4.767c3.378-1.787,4.072-3.675,4.768-4.467
		c0.626-0.718,6.1-7.488,8.405-16.094c0.252-0.94,0.467-1.899,0.632-2.877c1.688-9.934,4.668-5.464,6.06-3.575
		c1.39,1.888,3.676,8.839,3.773,13.31c0.101,4.47,0.696,8.044-7.15,18.967c-7.846,10.925-27.81,6.556-29.398,6.756
		c-1.59,0.197-11.42-0.695-15.891-3.379c-4.468-2.68-10.727-2.183-12.812-2.085c-2.087,0.1-10.329-4.271-10.926-6.556
		c-0.596-2.285-2.88-39.229-2.88-39.229l38.834-0.895v19.865c0,0,13.605,1.59,15.492,7.746c1.889,6.156,7.152,1.39,7.152,1.39"/>
	<path fill="#D8A956" d="M196.476,448.404c0,0-4.829,8.054-8.802,9.544c-3.973,1.489-4.469-1.983-8.939-1.488
		c-4.469,0.495-11.521,4.268-12.216,5.957c-0.695,1.689-2.682,4.568-2.284,5.959c0.398,1.39-0.299,3.974,1.191,4.767
		c1.489,0.795,1.489,3.278,5.064,3.379c3.575,0.1,7.352,1.787,12.614,0c5.264-1.79,9.635-2.087,11.423-4.074
		c1.787-1.984,2.184-4.172,3.475-7.051c1.292-2.88,1.292-6.257,1.789-7.549c0.495-1.29,1.488-6.059,1.488-6.554s0-3.276,0-3.276"/>
</g>
<g id="Warstwa_10">
	<path fill="#BC8C3F" d="M132.854,434.326c0,0,13.312,1.45,15.395,0.757c2.081-0.692,8.578-1.388,8.957-1.388
		c0.378,0,4.795-0.819,4.795-0.819s-1.198,2.52-2.018,2.395c-0.821-0.123-5.175,0.572-6.31,0.635c-1.136,0.061-5.235-0.063-5.867,0
		c-0.632,0.061-3.027,0.098-5.047,0.017s-3.47-0.206-3.785-0.206s-2.335-0.568-3.092-0.633c-0.757-0.063-3.028,0.127-3.028-0.313"/>
	<path fill="#BC8C3F" d="M51.566,428.831c0,0,21.103,3.414,25.551,2.468c4.447-0.946,0.283,1.684-2.083,1.314
		c-2.366-0.368-7.309-0.179-9.71-0.653c-2.402-0.472-3.632-0.926-6.661-1.219c-3.028-0.296-5.2-0.354-5.912-0.703
		C52.038,429.691,51.566,428.831,51.566,428.831z"/>
	<path fill="#BC8C3F" d="M130.466,470.162c0,0,0.054,0.245,0.32,0.653c0.366,0.56,1.139,1.423,2.731,2.372
		c2.756,1.644,3.801,2.172,3.801,2.172l3.118,1.221c0,0,2.918,0.015,4.025,0.038c1.108,0.022,5.12,0.131,6.03,0.685
		c0.91,0.556,1.763,0.05,4.159,1.754c2.397,1.704,13.611,3.516,15.858,3.129c2.967,0.314,8.986,0.73,10.259,0.695
		c1.271-0.036,13.026,0.825,19.619-8.725c6.594-9.548,6.258-13.771,6.276-14.276c0.02-0.506,0.02-8.258-1.888-12.494
		s-2.521-5.129-2.945-5.58s-1.061-0.982-1.061-0.982s-0.727,7.95,0.85,11.421c1.575,3.471,1.387,6.246,0.882,8.074
		c-0.504,1.829-1.641,7.696-2.713,9.211c-1.071,1.515-4.73,4.479-6.308,5.175c-1.578,0.692-7.748,2.9-10.751,3.468
		c-3.004,0.568-5.549,1.452-9.701,0.252c-4.152-1.198-2.385,0.191-6.424-0.188c-4.037-0.378-8.707-0.751-11.104-1.699
		c-2.397-0.949,2.776-0.191-4.036-1.203c-6.814-1.009-9.087-1.136-10.349-1.136c-1.261,0-3.279-0.252-3.911-0.631
		c-0.63-0.378-2.902-2.481-3.532-2.313"/>
	<path fill="#BC8C3F" d="M84.19,464.643c0,0-0.049,0.23-0.302,0.615c-0.346,0.528-1.074,1.344-2.578,2.241
		c-2.602,1.55-3.59,2.049-3.59,2.049l-2.942,1.153c0,0-2.755,0.014-3.802,0.035c-1.045,0.021-4.834,0.122-5.693,0.646
		s-1.664,0.048-3.927,1.654c-2.263,1.61-12.852,3.32-14.972,2.954c-2.802,0.298-8.484,0.691-9.686,0.656
		c-1.201-0.031-12.298,0.782-18.523-8.233c-6.224-9.015-5.908-13.001-5.925-13.479c-0.018-0.479-0.018-7.796,1.782-11.797
		c1.801-3.999,2.38-4.842,2.78-5.269c0.401-0.427,1.001-0.928,1.001-0.928s0.687,7.507-0.802,10.783
		c-1.488,3.275-1.309,5.896-0.833,7.624c0.476,1.727,1.549,7.265,2.562,8.694c1.012,1.432,4.466,4.231,5.955,4.885
		c1.49,0.655,7.315,2.74,10.151,3.275c2.835,0.536,5.239,1.371,9.158,0.239c3.92-1.132,2.252,0.179,6.064-0.177
		c3.813-0.358,8.222-0.71,10.484-1.606c2.264-0.896-2.622-0.181,3.812-1.136c6.432-0.951,8.577-1.072,9.768-1.072
		c1.191,0,3.097-0.236,3.693-0.595c0.595-0.357,2.739-2.343,3.334-2.183"/>
	<path fill="#BC8C3F" d="M50.619,445.115c0,0,8.297,0.946,9.243,5.805c0.946,4.857-0.883-1.261-1.136-1.388
		c-0.252-0.127-0.882-1.072-1.703-1.704c-0.821-0.631-1.863-0.81-3.155-1.577"/>
	<path fill="#BC8C3F" d="M166.42,449.904c0,0-8.458,3.477-10.287,7.767c-1.828,4.288,0.758,0.189,0.947,0
		c0.188-0.189,0.313-1.198,1.071-1.704c0.757-0.505,2.798-1.893,2.798-1.893"/>
</g>
<g id="Warstwa_5">
	<path fill="#FF8A65" d="M74.182,288.783c0,0-23.152,13.955-30.599,21.921c-1.096,1.172-1.852,2.214-2.143,3.065
		c-2.271,6.622-1.325,9.46-1.041,11.164c0.284,1.702,0.362,3.217,3.446,4.824c3.083,1.611,6.301,3.691,6.301,3.691h2.905v10.599
		v7.382c0,0-1.202,6.057-1.202,7.382c0,1.323,0.378,7.569,0.378,8.705s0,3.408,0,4.731c0,1.325,0,2.461-0.946,3.786
		c-0.946,1.323-1.703,2.46-2.649,3.406s-2.082,3.217-3.028,3.784c-0.946,0.568-1.759,1.894-1.759,1.894l-1.27,2.65
		c0,0,7.949,15.898,38.042,17.6c30.093,1.704,56.4,0.379,59.807,0c3.407-0.376,25.551-7.947,27.822-9.651s3.785-3.596,3.785-4.542
		s-1.137-4.353-1.514-5.109c-0.379-0.758-0.758-1.137-2.461-3.975c-1.704-2.84-2.461-4.923-2.839-5.488
		c-0.378-0.568-1.136-2.461-1.704-2.65c-0.567-0.189-2.839-6.057-2.839-6.057l-0.757-36.905l10.977,7.001
		c0,0,17.602-22.333,20.063-21.197c2.46,1.137-17.791-17.602-21.009-19.492c-3.218-1.894-14.763-11.734-14.763-11.734l-15.33-2.083"
		/>
	<path fill="#FF8A65" d="M36.992,315.565l7.482-5.768c0,0,7.28,3.781,8.037,4.538c0.757,0.755,8.896,7.854,8.896,7.854l4.258,5.109
		c0,0-1.798,2.744-1.893,3.123c-0.094,0.379-3.312,3.027-3.312,3.027s-1.991,1.229-3.88,2.083c-1.889,0.851-7.854,1.515-7.854,1.515
		l-8.766-3.598"/>
	<path fill="#FF9376" d="M185.87,351.003c0,0,5.566,0,7.125-1.018c1.558-1.017,0.334-4.802,0-5.559
		c-0.334-0.758-4.475-5.867-4.475-5.867s-1.589-2.271-2.65-2.556c-1.063-0.282-2.483-0.189-2.862,0s-3.028,4.827-3.028,4.827v1.229
		l-2.555,2.083"/>
	<path fill="#FF9376" d="M185.407,351.244c0,0,6.436-0.098,7.16-0.792c0.725-0.695-1.324-3.313-1.798-3.691
		s-3.407-1.325-4.164-1.356s-0.79-0.127-1.198,0c-0.41,0.127-3.723,0.412-3.723,0.412"/>
</g>
<g id="Warstwa_6">
	<path fill="#EF6945" d="M52.544,353.826l0.757-3.784l-0.252-6.812c0,0-0.126-3.281-0.126-3.66s1.841-5.01,1.841-5.01l5.604-4.803
		l-3.911,15.093c0,0-0.86,5.821-1.692,6.579c-0.832,0.757-1.714,3.217-1.462,4.163"/>
	<polyline fill="#EF6945" points="159.918,330.99 153.231,313.77 156.573,356.74 159.918,358.622 160.44,356.427 	"/>
	<path fill="#EF6945" d="M156.835,354.584c0,0-93.292,8.201-102.072-3.154c-3.39,2.989-2.282,7.382-2.219,8.516
		c0.063,1.136,0.125,5.867,2.459,7.382s22.964,5.11,22.964,5.11l59.997,3.029l19.936-5.489v-9.086l2.585-2.27"/>
	<path fill="#EF6945" d="M52.544,370.23l-0.399,3.677c0,0,34.51,10.802,51.627,6.922c17.114-3.878,34.825-0.882,35.834-0.882
		c1.008,0,17.229-1.694,17.229-1.694s4.599-2.85,5.103-2.785c0.505,0.063,2.245-0.774,2.245-0.774l-2.168-3.532l-14.966-2.76
		l-86.683-2.896"/>
	<path fill="#953A19" d="M52.038,352.759c0,0-6.056,14.001-2.082,17.408c3.975,3.406,21.387,8.327,27.822,7.948
		s45.611,0.42,50.723,0.021c5.11-0.399,21.765-0.399,25.928-1.723c4.165-1.325,9.085-3.738,9.085-3.738v-16.514
		C163.514,356.161,66.423,365.066,52.038,352.759z"/>
	<path fill="#D8A956" d="M102.068,350.042c-11.742,0-21.261,8.22-21.261,18.358s9.519,18.359,21.261,18.359
		c11.741,0,21.261-8.221,21.261-18.359S113.809,350.042,102.068,350.042z M101.942,379.189c-7.143,0-12.934-4.631-12.934-10.347
		c0-5.713,5.791-10.347,12.934-10.347c7.142,0,12.932,4.634,12.932,10.347C114.873,374.558,109.083,379.189,101.942,379.189z"/>
	<path fill="#EF6945" d="M190.011,315.848l-2.21-2.711c0,0-0.567-0.311-2.68,0.633c-2.113,0.944-2.682,1.32-4.952,3.214
		s-2.522,2.083-4.479,3.974c-1.956,1.894-2.713,2.462-4.228,4.166c-1.514,1.701-4.672,4.163-4.323,4.635
		c0.35,0.475,0.923,0.664-0.026,1.989c-0.949,1.323-0.868,3.279-0.868,3.279s-0.98-0.624,1.835,1.171
		c2.814,1.794,3.951,3.119,3.951,3.119"/>
	<path fill="#EF6945" d="M39.51,313.623c0,0,0.227-0.928,0.889,0.839c0.662,1.765,1.041,2.143,1.609,4.036
		c0.567,1.894,1.135,4.549,1.514,4.923c0.378,0.377,1.514,1.021,2.271,2.779c0.757,1.761,0.189,0.945,1.514,2.11
		s0.899,1.082,2.625,2.353c1.728,1.271,3.617,1.328,3.368,2.058c-0.25,0.729,1.462,1.107,1.462,1.107s0.789,0.229-0.495,1.154
		c-1.283,0.928-9.068,0.397-10.57,0s-4.908-3.235-6.706-5.225c-1.798-1.986-2.555-5.434-2.555-5.319c0,0.116,0-4.993,0-4.993"/>
	<path fill="#EF6945" d="M157.9,354.584"/>
</g>
<g id="czapka">
	<path fill="#689F38" d="M163.43,117.122c0,8.362-7.33,15.141-16.371,15.141c-5.625,0-10.586-2.623-13.534-6.619
		c-1.79-2.427-2.837-5.362-2.837-8.522c0-8.361,7.329-15.141,16.371-15.141C156.1,101.982,163.43,108.761,163.43,117.122z"/>
	<path fill="#689F38" d="M80.619,158.259c0,0-16.239,22.859-17.414,24.349s11.545,3.028,11.545,3.028l22.522-13.688l4.542-9.591"/>
	<path fill="#689F38" d="M74.75,170.116c0,0,6.456-22.144,28.683-30.093c22.229-7.949,29.989-16.088,34.531-16.845
		c4.543-0.757,10.977,7.381,11.734,10.41c0.757,3.028,5.867,7.192,9.273,11.356c3.407,4.164,10.22,8.138,13.816,12.869
		c3.597,4.732,8.327,10.031,10.599,16.277c2.271,6.245,3.407,10.031,3.218,11.923c-0.189,1.893,0.021,4.542,0.021,4.542"/>
	<path display="none" fill="#518420" d="M66.257,233.244l3.762-5.215c0,0,16.488-15.535,33.988-14.035s28.75,5.75,32.75,8.5
		s10.824,11.036,10.913,11.721s0.457,3.487,0.457,3.487l-0.995,2.542"/>
	<path fill="#79AF46" d="M63.205,182.608c0,0,32.364-31.418,63.781-25.74c28.703,5.187,52.191,14.956,63.542,38.54
		c1.073,2.231,2.039,4.586,2.89,7.072c-11.167,8.706-17.728,16.719-17.728,16.719s-11.229-22.396-23.343-27.128
		c-12.113-4.731-52.047,1.514-52.047,1.514s-19.684,10.558-20.44,11.714c-0.757,1.156-4.542,5.509-4.542,5.509
		s-1.893,5.488-3.596,7.002s-3.266,3.975-5.324,4.354c-2.057,0.378-7.546,0.946-9.06-1.136c-1.514-2.082-1.514-6.002-1.514-6.002
		S57.922,187.212,63.205,182.608z"/>
	<polyline fill="#79AF46" points="196.068,210.24 194.98,210.443 174.87,214.214 175.567,215.906 178.845,223.867 180.369,222.532 
		186.625,217.053 190.011,212.889 194.932,205.299 189.823,198.695 182.063,193.206 174.049,198.884 171.842,207.59 
		181.873,223.867 	"/>
</g>
<g id="Warstwa_9" display="none">
	<path display="inline" fill="#EF6945" d="M70.822,305.03c0,0,0.478,11.629,4.644,13.962s6.619,4,12.393,4.5
		s11.268,0.666,13.854,0.666s7.753,0.833,10.086,0s3.667-2.572,5.333-4.286s2.559-2.88,3.779-4.047s1.887-2.167,2.554-2.167
		s2.834-1.5,3.334-1.5s2.666-1.666,2.666-1.666l0.667-1.667l1.5-0.5l1.316-2.164c0,0-8.483-8.337-10.316-9.503s-24-5.833-24-5.833
		h-9.5l-7.833,7"/>
	<path display="inline" fill="#EF6945" d="M116.103,320.956c0,0-2.381,2.355-3.343,2.778s0.206-0.569-2.794,2.512
		s-3.869,3.818-6.935,4.783s-5.677,2.419-10.205,1.358s-9.528-3.061-11.194-4.061s-4.667-3.832-5.667-4.666
		s-1.333-1.743-1.333-2.705s-1.146-2.761-2.084-6.223s1.918-7.058,1.918-7.058"/>
</g>
<g id="twarz">
	<path fill="#E2BEA6" d="M195.121,237.115c0.019-1.286-0.632-12.49,0.882-16.402c1.515-3.913,7.824-9.969,7.824-12.24
		c0-2.271-5.425-7.066-14.005-0.757c-8.581,6.309-14.132,11.483-14.132,11.483l-1.642,29.398
		C174.049,248.597,194.868,254.149,195.121,237.115z"/>
	<polyline fill="#79AF46" points="178.277,212.984 175.504,222.532 169.665,225.57 167.962,215.026 167.568,209.956 167.3,205.698 
		168.34,201.912 171.18,195.194 	"/>
	<path fill="#683E1C" d="M167.377,205.755l8.313,13.444c0,0-1.137,43.088-1.642,45.548c-0.503,2.461-7.317,29.524-23.594,30.093
		c-3.975,3.027-8.327,4.353-8.517,3.596c-0.189-0.756-3.407,12.87-20.44,14.574c-17.034,1.704-28.39,1.136-34.824-7.95
		c-6.436-9.084-10.978-11.545-10.788-12.302c0.189-0.756-18.358-12.112-18.358-22.9c0-10.787-0.379-23.279,0-28.957
		c0.378-5.678,4.731-21.198,4.731-21.198v-3.785"/>
	<path fill="#E2BEA6" d="M62.259,217.306c0,0-8.327-14.131-14.888-11.734c-6.561,2.397-2.145,11.357-1.136,13.879
		c1.009,2.523,5.173,9.715,4.542,14.888c-0.631,5.174-2.65,14.761,1.261,17.16c3.912,2.398,5.3,1.767,5.3,1.767"/>
	<line fill="#E2BEA6" x1="60.745" y1="226.517" x2="61.502" y2="223.867"/>
	<path fill="#E2BEA6" d="M66.801,210.618c0,0,19.494-31.985,54.508-28.579s45.991,23.259,45.991,23.259s1.324,22.732-7.003,31.249
		c-8.328,8.517-16.277,10.031-27.064,7.003c-10.788-3.028-15.142-3.975-18.359-0.379c-3.217,3.596-14.005,6.057-17.412,4.731
		c-3.406-1.324-5.678-4.352-6.624-6.435c-0.946-2.082-1.135-2.649-2.839-2.271c-1.704,0.378-2.271,2.082-3.407,2.649
		c-1.135,0.567-11.544,9.273-14.573-0.568C66.99,231.437,65.666,215.918,66.801,210.618z"/>
	<path fill="#C6A38B" d="M100.742,229.32l16.781,0.731c0,0,3.154,7.066,1.135,10.22c-2.019,3.154-9.967,7.792-11.481,7.997
		c-1.515,0.204-8.022,1.536-9.968,0s-4.038-1.688-5.552-2.95s-0.372-3.244-1.136-4.542c0,0-0.505-3.028,0-3.785
		c0.505-0.757,5.552-5.678,6.688-6.056C98.345,230.554,99.856,229.282,100.742,229.32z"/>
	<path fill="#C6A38B" d="M99.212,228.693c0,0-0.115,0.068-0.318,0.192c-1.839,1.118-10.98,6.854-10.043,9.791
		c1.041,3.265,1.45,4.68,2.128,5.66s1.515,1.579,4.022,1.911c2.508,0.331,12.917,0.757,13.579,0.71
		c0.663-0.048,4.779-4.826,5.489-5.205c0.709-0.378,3.122-2.41,3.407-3.925c0.283-1.516,0.567-3.361,0.52-4.26
		c-0.047-0.899,0.218-2.522,0.006-2.697c-0.212-0.175-0.572-1.089-0.715-1.325c-0.143-0.237-0.047-0.568-1.94-1.184
		c-1.893-0.615-2.603-0.899-4.447-1.041c-1.846-0.142-1.893-0.237-3.407-0.237c-1.514,0-2.129,0-3.169,0
		c-1.042,0-3.076,0.426-3.076,0.426l-1.419,0.709"/>
	<path fill="#E2BEA6" d="M202.502,328.814c0,0-20.629,5.771-16.939,15.141c5.679,8.044,8.249,9.559,8.249,9.559
		s0.646,4.824,0.646,9.462s-0.283,5.3,1.515,6.719c1.798,1.421,2.366,1.421,3.407,1.421c1.04,0,3.312,0.187,3.122-0.947
		c-0.189-1.136-0.354-1.986,0.013-3.501c0.366-1.515,0.461-2.366,0.745-3.881c0,0,1.575,3.029,2.081,4.796
		c0.506,1.765,0.505,2.019,1.894,2.019c1.388,0,2.271,0.251,2.902-0.506c0.631-0.755,1.009-1.386,1.514-1.892
		c0.504-0.505,0.757-1.515,1.136-1.515s2.647,0.883,3.154,1.767c0.506,0.885,1.137,2.271,1.641,2.902
		c0.505,0.631,0.881,0.905,2.144,0.768c1.264-0.137,2.526-0.264,3.155-1.021c0.631-0.757,1.011-1.259,1.136-2.521
		c0.126-1.263,0.379-1.011,0-2.146c-0.378-1.136-1.514-3.029-1.514-3.029s-1.766-2.145,0-2.145s2.271,0.379,3.532,0
		s1.894-0.633,1.894-1.894s0.756-2.648,0-3.911c-0.758-1.261-2.021-3.769-3.281-4.472c-1.262-0.701-1.768-0.701-3.407-5.37
		c-1.641-4.666-1.009-4.287-2.396-5.678c-1.389-1.388-1.641-1.766-3.028-3.281c-1.389-1.512-2.523-2.899-3.785-3.532
		c-1.262-0.631-4.616-2.019-5.336-2.146c-0.721-0.124-1.854-0.501-2.739-0.63C203.071,329.222,202.502,328.814,202.502,328.814z"/>
	<path fill="#E2BEA6" d="M27.056,329.758c0,0-22.617,17.887-23.279,19.495c-0.663,1.608-0.757,4.542,0,4.921
		c0.757,0.379,2.555,0.662,2.839,0.662c0.283,0,1.041,1.703,0.378,2.555c-0.662,0.853-0.946,0.475-0.946,2.082
		c0,1.608-0.946,1.894,0.473,3.029c1.419,1.135,0.378,1.513,2.555,1.513c2.176,0,5.205-1.136,5.678-1.419
		c0.473-0.282,4.069-3.974,4.448-4.259c0.378-0.283,2.082-2.08,2.555-2.459c0.474-0.379,0.852-1.042,1.704-1.894
		c0.852-0.851,2.46-2.744,2.46-2.744s0.284-1.136,1.135-0.757c0.852,0.378,2.555,4.448,3.596,5.963
		c1.041,1.512,0.378,1.701,1.608,2.744c1.23,1.04,0.852,1.229,2.839,1.323c1.988,0.096,2.934,0.285,3.596-0.379
		c0.662-0.662,1.704-2.27,1.704-3.311c0-1.042-1.514-8.422-1.325-9.18c0.189-0.757,0.189-2.461,0.189-2.461l-1.514-3.313
		c0,0-4.164-2.838-5.016-3.595c-0.851-0.758-1.608-1.04-2.555-1.894c-0.946-0.851-1.704-1.229-1.987-1.987
		c-0.284-0.757-0.757-1.325-0.757-1.986c0-0.662-0.189-1.325-0.189-1.325L27.056,329.758z"/>
	<path fill="#FFA18F" d="M40.399,314.462c0,0-0.726,7.696,1.546,10.345c2.271,2.65,2.902,5.048,6.056,6.813
		c3.155,1.767,4.291,1.769,5.426,2.399c1.135,0.63,1.513,2.648,1.261,4.415c-0.252,1.767-1.387,4.417-1.64,4.796
		c-0.253,0.378-0.884,1.766-1.262,2.27c-0.379,0.506-0.379,1.261-2.02,1.388c-1.64,0.127-4.793,0.377-6.561,0
		c-1.767-0.377-3.61-0.075-3.95-1.27c-0.34-1.191-6.523-6.048-8.416-7.184c-1.892-1.136-4.793-3.279-5.046-4.669
		c-0.253-1.388-0.504-0.56-0.883-2.992c-0.378-2.432-0.504-3.568-0.631-5.083c-0.126-1.513,0.253-4.163,0.757-4.92
		c0.504-0.758,1.388-3.658,2.523-4.163c1.136-0.506,2.271-2.146,3.28-2.146c1.01,0,2.146-0.25,3.281-0.692
		c1.136-0.443,3.66-1.199,4.542-1.326C39.547,312.317,40.399,314.462,40.399,314.462z"/>
	<path fill="#FFA18F" d="M204.249,329.948c-0.748-0.851-1.589-1.419-2.618-1.229c-1.028,0.189-0.841,0.473-2.897,1.229
		c-2.057,0.758-2.992,1.326-4.581,2.366c-1.59,1.042-2.99,1.515-4.021,3.123c-1.028,1.61-1.215,2.744-2.335,4.259
		c-1.123,1.515-1.776,2.082-2.057,4.353c-0.282,2.271,0.652,4.354,0.652,4.827c0,0.472,0.093,0.757,0,1.136
		s-0.372,1.229-1.122,1.229c-0.748,0-0.467,0-3.271,0c-2.805,0-5.39,0.096-6.388-0.661c-0.998-0.758-1.746-1.8-2.309-3.03
		c-0.561-1.229-1.588-0.851-2.429-4.163c-0.842-3.312-1.183-4.982-1.293-6.229c-0.11-1.247-0.92-1.153,0-2.666
		c0.919-1.515,4.098-7.382,4.658-8.045c0.562-0.662,2.431-2.556,3.833-3.879c1.403-1.325,3.832-3.122,5.515-4.544
		c1.683-1.419,3.726-2.825,4.674-3.026c0.95-0.202,0.412,0.282,2.637,0c2.226-0.283,3.534-1.619,6.245-0.053
		c2.712,1.567,2.712,1.282,4.207,2.703c1.495,1.419,3.272,2.365,3.926,3.688c0.655,1.325,1.31,3.029,1.496,4.544
		c0.187,1.513,1.683,0.944,0.562,2.934c-1.121,1.987-1.775,2.177-1.775,2.177h-1.029"/>
	<path fill="#E2BEA6" d="M208.811,330.724c0,0-6.594-2.728-7.791-2.382c-1.198,0.345-6.73,3.869-8.024,4.675"/>
	<path fill="#C6A38B" d="M202.75,328.814"/>
	<path fill="#C6A38B" d="M203.102,328.666l-1.854-0.355c0,0-2.495,0.869-4.465,2.353c-1.97,1.485-3.406,2.11-4.122,2.549
		c-0.716,0.441-1.656,1.163-1.794,1.307c-0.139,0.144-1.354,2.006-1.406,2.109c-0.052,0.104-0.786,1.656-0.94,1.932
		c-0.154,0.272-1.248,1.826-1.248,1.826l-0.953,1.463l-0.462,1.45l-0.133,0.882l0.199,0.281c0,0,3.354-6.281,4.584-6.802
		c1.23-0.52,3.737-3.903,4.424-4.375"/>
	<path fill="#C6A38B" d="M66.801,210.618c0,0,15.141-22.311,35.014-27.104c19.873-4.794,37.441,1.8,39.626,2.64
		c2.184,0.839,17.209,7.177,22.386,14.481c5.177,7.304,3.474,4.604,3.474,4.604s-14.952-13.377-25.804-15.036
		s-23.846-1.659-27.758-2.296c-3.912-0.638-9.589-1.406-15.898,1.211c-6.308,2.616-16.656,8.868-17.917,10.272
		C78.662,200.794,66.801,210.618,66.801,210.618z"/>
</g>
</svg>
