<?xml version="1.0" encoding="utf-8"?>
<!-- Generator: Adobe Illustrator 16.0.0, SVG Export Plug-In . SVG Version: 6.00 Build 0)  -->
<!DOCTYPE svg PUBLIC "-//W3C//DTD SVG 1.1//EN" "http://www.w3.org/Graphics/SVG/1.1/DTD/svg11.dtd">
<svg version="1.1" xmlns="http://www.w3.org/2000/svg" xmlns:xlink="http://www.w3.org/1999/xlink" x="0px" y="0px" width="266px"
	 height="401px" viewBox="0 0 266 401" enable-background="new 0 0 266 401" xml:space="preserve">
<g id="Warstwa_1" display="none">
	
		<image display="inline" overflow="visible" width="225" height="225" xlink:href="2C974768.jpg"  transform="matrix(2.0845 0 0 2.0845 -98.8018 -34.4893)">
	</image>
</g>
<g id="Warstwa_2" display="none">
	
		<text transform="matrix(1 0 0 1 -0.6572 324.2891)" display="inline" fill="#99D066" font-family="'Cambria-Bold'" font-size="244">DR</text>
	<path display="inline" fill="#C75B39" d="M245,160.022c3.75-1.272,28.85-6.022,29.55-14.522s-8.55-35.5-16.3-35.75
		S241.5,128,239.75,131.5s-22.5,11.75-22.5,11.75s8.25-6,4-12.5S240.5,133.25,240,117s-3-17.5-7.25-17.5s-18.5,3.5-23.5,5.5
		S215,89.25,204,81.25c-0.541-0.394-1.05-0.777-1.555-1.159l13.805-7.841c0,0-43.5-75-51.5-84s-26.5-47-38.5-46.5s-8.25,91-8.25,96
		s3.25,68.75,3.25,68.75s-5.5,7.25-6.25,17.5c-11.75,0.25-26.25,4.75-31,10.25s-21.25,24-21.25,24s-17,7-7.5,19.25
		s23.5,1.5,25.25-1.5s1.5-15.978,1.5-15.978s18.75-6.522,21-8.022s9,0.75,11.25,3c-2,5.25-22.25,39.75-22,42s2.25,16,3.5,19
		c-0.75,4.75-1.75,23.75,0.5,27C89,242.25,87,245,83,247.25S67.25,240.5,59,245s-8.75,39.75-9.75,43.75s-9.75,37,2.75,39.5
		c11.25,0.5,24.25-4,24.5-4.75s2.75-11.25,1.5-13.5s7-7.5,8.25-14L98,289l12.5,10.75c0,0,25.25-14.25,25.5-18.5
		c5.75-1.5,32.75-10.75,39-6.75s11.25,8,11.25,8l3-0.25l-1,7.25c0,0-6,24.25,0.25,27.75s29,2.75,37,6s32.75,6.5,37.5,2.25
		s13.25-15.5,11.25-17.75s-9.75-9-13.5-10s-21-7.25-21-7.25L231,284c0,0,5-24,3.25-28.5s-7-10.25-8.75-10.75s0-6.5,0-6.5l-15.75-5.5
		c0,0,3.25-36,0-40.75S241.25,161.295,245,160.022z"/>
</g>
<g id="Warstwa_3">
</g>
<g id="Warstwa_4" display="none">
	<path display="inline" fill="#C75B39" d="M533,216.022c3.75-1.272,28.85-6.022,29.55-14.522s-8.55-35.5-16.3-35.75
		S529.5,184,527.75,187.5s-22.5,11.75-22.5,11.75s8.25-6,4-12.5S528.5,189.25,528,173s-3-17.5-7.25-17.5s-18.5,3.5-23.5,5.5
		s5.75-15.75-5.25-23.75c-0.541-0.394-1.049-0.777-1.555-1.159l13.805-7.841c0,0-43.5-75-51.5-84s-26.5-47-38.5-46.5
		s-8.25,91-8.25,96s3.25,68.75,3.25,68.75s-5.5,7.25-6.25,17.5c-11.75,0.25-26.25,4.75-31,10.25s-21.25,24-21.25,24s-17,7-7.5,19.25
		s23.5,1.5,25.25-1.5s1.5-15.978,1.5-15.978s18.75-6.522,21-8.022s9,0.75,11.25,3c-2,5.25-22.25,39.75-22,42s2.25,16,3.5,19
		c-0.75,4.75-1.75,23.75,0.5,27c-7.25-0.75-9.25,2-13.25,4.25s-15.75-6.75-24-2.25s-8.75,39.75-9.75,43.75s-9.75,37,2.75,39.5
		c11.25,0.5,24.25-4,24.5-4.75s2.75-11.25,1.5-13.5s7-7.5,8.25-14l11.75-7l12.5,10.75c0,0,25.25-14.25,25.5-18.5
		c5.75-1.5,32.75-10.75,39-6.75s11.25,8,11.25,8l3-0.25l-1,7.25c0,0-6,24.25,0.25,27.75s29,2.75,37,6s32.75,6.5,37.5,2.25
		s13.25-15.5,11.25-17.75s-9.75-9-13.5-10s-21-7.25-21-7.25L519,340c0,0,5-24,3.25-28.5s-7-10.25-8.75-10.75s0-6.5,0-6.5l-15.75-5.5
		c0,0,3.25-36,0-40.75S529.25,217.295,533,216.022z"/>
</g>
<g id="Warstwa_6">
	<g>
		<g>
			<path fill="#C75B39" d="M147.563,82.994c0.485-0.114,1.313-0.808,2.483-2.084c0.604-0.592,0.922-1.816,0.956-3.676
				c0.035-1.859-0.216-3.927-0.75-6.201c-0.79-3.367-1.747-5.868-2.875-7.505c-1.127-1.636-2.66-2.226-4.601-1.771l-4.67,1.096
				l4.974,21.192L147.563,82.994z M223,223.022c3.75-1.272,28.85-6.022,29.55-14.522s-8.55-35.5-16.3-35.75S219.5,191,217.75,194.5
				s-22.5,11.75-22.5,11.75s8.25-6,4-12.5S218.5,196.25,218,180s-3-17.5-7.25-17.5s-18.5,3.5-23.5,5.5s5.75-15.75-5.25-23.75
				c-0.541-0.394-1.049-0.777-1.555-1.159l13.805-7.841c0,0-16.93-29.189-31.608-53.333c0.11,4.078-0.212,7.516-0.98,10.299
				c-0.519,1.873-1.44,3.54-2.766,5.001c1.567,0.985,2.79,2.05,3.669,3.194c0.592,0.763,1.587,2.457,2.987,5.082
				c1.4,2.626,2.403,4.669,3.01,6.129l12.238,29.001l-12.013,2.819l-13.16-30.526c-1.688-3.955-2.958-6.483-3.811-7.584
				c-1.146-1.432-2.203-2.034-3.173-1.807l-0.938,0.22l9.932,42.314l-10.679,2.507l-24.47-104.258l13.246-3.109
				C126.549,26.746,113.479,4.365,104.25,4.75c-5.961,0.249-8.035,22.707-8.613,45.86l5.26-1.234
				c3.113-0.73,5.929-0.041,8.447,2.069c2.517,2.11,4.964,5.413,7.339,9.909c2.376,4.494,4.591,9.852,6.646,16.072
				c2.055,6.223,3.916,12.888,5.586,19.999c2.615,11.143,4.224,19.881,4.827,26.217c0.604,6.337,0.65,11.753,0.138,16.251
				s-1.461,7.634-2.843,9.408c-1.886,2.445-3.776,3.888-5.669,4.332l-15.795,3.707L95.975,99.407
				c0.016,0.638,0.025,1.098,0.025,1.343c0,5,3.25,68.75,3.25,68.75s-5.5,7.25-6.25,17.5c-11.75,0.25-26.25,4.75-31,10.25
				s-21.25,24-21.25,24s-17,7-7.5,19.25s23.5,1.5,25.25-1.5s1.5-15.978,1.5-15.978S78.75,216.5,81,215s9,0.75,11.25,3
				c-2,5.25-22.25,39.75-22,42s2.25,16,3.5,19c-0.75,4.75-1.75,23.75,0.5,27C67,305.25,65,308,61,310.25S45.25,303.5,37,308
				s-8.75,39.75-9.75,43.75s-9.75,37,2.75,39.5c11.25,0.5,24.25-4,24.5-4.75s2.75-11.25,1.5-13.5s7-7.5,8.25-14L76,352l12.5,10.75
				c0,0,25.25-14.25,25.5-18.5c5.75-1.5,32.75-10.75,39-6.75s11.25,8,11.25,8l3-0.25l-1,7.25c0,0-6,24.25,0.25,27.75s29,2.75,37,6
				s32.75,6.5,37.5,2.25s13.25-15.5,11.25-17.75s-9.75-9-13.5-10s-21-7.25-21-7.25L209,347c0,0,5-24,3.25-28.5s-7-10.25-8.75-10.75
				s0-6.5,0-6.5l-15.75-5.5c0,0,3.25-36,0-40.75S219.25,224.295,223,223.022z M117.251,130.553c2.221-0.521,3.626-1.64,4.215-3.353
				c0.588-1.715,0.711-4.494,0.37-8.342c-0.342-3.846-1.492-9.94-3.45-18.285c-2.593-11.047-4.963-18.469-7.109-22.27
				c-2.146-3.797-4.596-5.374-7.349-4.728l-2.652,0.622l13.37,56.966L117.251,130.553z"/>
		</g>
	</g>
</g>
<g id="Warstwa_5" display="none">
	<g display="inline">
		<g>
			<path fill="#C75B39" d="M-127.841,107.23c-0.726-0.188-1.802,0.058-3.229,0.739l-3.436,1.639l2.443,5.122l3.297-1.573
				c0.357-0.17,0.993-0.614,1.908-1.332c0.469-0.35,0.766-0.815,0.892-1.396c0.126-0.58,0.058-1.146-0.205-1.695
				C-126.559,107.92-127.116,107.419-127.841,107.23z M-154.979,120.084c-1.248-0.758-2.943-0.807-5.088-0.147l-2.066,0.636
				l4.488,14.579l2.029-0.625c1.73-0.533,2.903-1.103,3.516-1.71c0.614-0.607,0.981-1.451,1.103-2.531
				c0.121-1.08-0.147-2.688-0.805-4.823C-152.672,122.636-153.731,120.843-154.979,120.084z M-57,216.022
				c3.75-1.272,28.85-6.022,29.55-14.522S-36,166-43.75,165.75S-60.5,184-62.25,187.5s-22.5,11.75-22.5,11.75s8.25-6,4-12.5
				S-61.5,189.25-62,173s-3-17.5-7.25-17.5s-18.5,3.5-23.5,5.5c-3.542,1.417,0.812-7.074-0.252-14.991
				c0-0.009,0.003-0.016,0.004-0.025c0.26-4.181-0.897-7.957-2.328-10.947c0.001-0.001,0.003-0.001,0.004-0.002
				c2.678-2.215,9.572-6.785,9.572-6.785s-43.5-75-51.5-84s-26.5-47-38.5-46.5s-8.25,91-8.25,96s3.25,68.75,3.25,68.75
				s-5.5,7.25-6.25,17.5c-11.75,0.25-26.25,4.75-31,10.25s-21.25,24-21.25,24s-17,7-7.5,19.25s23.5,1.5,25.25-1.5
				s1.5-15.978,1.5-15.978s18.75-6.522,21-8.022s9,0.75,11.25,3c-2,5.25-22.25,39.75-22,42s2.25,16,3.5,19
				c-0.75,4.75-1.75,23.75,0.5,27c-7.25-0.75-9.25,2-13.25,4.25s-15.75-6.75-24-2.25s-8.75,39.75-9.75,43.75s-9.75,37,2.75,39.5
				c11.25,0.5,24.25-4,24.5-4.75s2.75-11.25,1.5-13.5s7-7.5,8.25-14l11.75-7l12.5,10.75c0,0,25.25-14.25,25.5-18.5
				c5.75-1.5,32.75-10.75,39-6.75s11.25,8,11.25,8l3-0.25l-1,7.25c0,0-6,24.25,0.25,27.75s29,2.75,37,6s32.75,6.5,37.5,2.25
				s13.25-15.5,11.25-17.75s-9.75-9-13.5-10s-21-7.25-21-7.25L-71,340c0,0,5-24,3.25-28.5s-7-10.25-8.75-10.75s0-6.5,0-6.5
				l-15.75-5.5c0,0,3.25-36,0-40.75S-60.75,217.295-57,216.022z M-142.47,129.673c-0.168,1.772-0.668,3.367-1.499,4.785
				c-0.832,1.418-1.857,2.508-3.077,3.268c-1.667,1.045-3.237,1.794-4.712,2.248l-12.303,3.788l-8.214-26.681l12.303-3.788
				c2.425-0.747,4.485-1.022,6.18-0.827c1.694,0.196,3.218,0.756,4.57,1.682c1.352,0.925,2.498,2.133,3.437,3.624
				c0.939,1.491,1.689,3.146,2.25,4.966C-142.657,125.59-142.302,127.901-142.47,129.673z M-116.709,125.804l-7.854-5.706
				c-1.005-0.744-1.786-1.166-2.342-1.267c-0.75-0.12-1.481-0.011-2.195,0.33l-0.69,0.329l4.879,10.227l-7.855,3.748l-12.021-25.196
				l13.034-6.219c2.417-1.153,4.362-1.828,5.837-2.025c1.474-0.197,2.869,0.077,4.185,0.82c1.315,0.744,2.356,1.917,3.122,3.522
				c0.667,1.398,0.943,2.747,0.828,4.046c-0.115,1.3-0.546,2.515-1.293,3.645c-0.476,0.72-1.233,1.489-2.271,2.307
				c1.079-0.134,1.905-0.148,2.479-0.042c0.386,0.069,1.014,0.312,1.883,0.728s1.483,0.764,1.842,1.042l7.271,5.494
				L-116.709,125.804z"/>
		</g>
	</g>
	<text transform="matrix(1 0 0 1 415.8428 263.7793)" display="inline" fill="#99D066" font-family="'Arial-Black'" font-size="43">DR</text>
</g>
</svg>
