<?xml version="1.0" encoding="utf-8"?>
<!-- Generator: Adobe Illustrator 16.0.0, SVG Export Plug-In . SVG Version: 6.00 Build 0)  -->
<!DOCTYPE svg PUBLIC "-//W3C//DTD SVG 1.1//EN" "http://www.w3.org/Graphics/SVG/1.1/DTD/svg11.dtd">
<svg version="1.1" id="Warstwa_1" xmlns="http://www.w3.org/2000/svg" xmlns:xlink="http://www.w3.org/1999/xlink" x="0px" y="0px"
	 width="188.688px" height="390.375px" viewBox="21.382 16.943 188.688 390.375"
	 enable-background="new 21.382 16.943 188.688 390.375" xml:space="preserve">
<g id="Warstwa_2_1_" display="none">
	
		<rect x="-12.868" y="-25.01" display="inline" fill="#FCFFCE" stroke="#89FF06" stroke-width="6" stroke-miterlimit="10" width="272" height="483"/>
</g>
<g id="Warstwa_1_2_">
	<g id="Warstwa_1_1_" display="none">
		
			<image display="inline" overflow="visible" enable-background="new    " width="823" height="1062" xlink:href="F7AAD8C5.jpg"  transform="matrix(0.4017 0 0 0.4017 -55.74 -0.824)">
		</image>
	</g>
	<g id="Warstwa_2">
		<path fill="#C75B39" stroke="#C75B39" stroke-width="6" stroke-miterlimit="10" d="M116.537,20.564
			c-9.13-3.333-37.536,11.333-43.536,30.667s-1.333,45.333,18.667,70.667c-62,10-68,48-66.667,100s35.333,50,35.333,50
			s8.047,105.333,10.354,115.333c2.313,10,20.053,21.334,45.85,15.334c0.464-47.334,0-138.667,0-138.667"/>
		<path fill="#C75B39" stroke="#C75B39" stroke-width="6" stroke-miterlimit="10" d="M115.052,20.564
			c9.13-3.333,37.536,11.333,43.536,30.667s1.333,45.333-18.667,70.667c62,10,68,48,66.667,100s-35.333,50-35.333,50
			s-8.047,105.333-10.357,115.333c-2.31,10-20.049,21.334-45.846,15.334c-0.464-47.334,0-138.667,0-138.667"/>
	</g>
</g>
<path fill="#C75B39" d="M106.507,18.098c0,0,8.334-2.333,16.834,0s16.166,29.167,16.166,29.167v33.5l-5.5,34.167l4.667,230.32
	l-3.334,37.666l-3.333,18.334l-6.333,4.666l-9.188,0.423l-1.875-0.354l-2.333,0.229l-1.771-0.271l-12.5-5.679L85.34,365.933
	l8.333-241.663l6.333-86.658l3-12L106.507,18.098z"/>
</svg>
